{"cells":[{"cell_type":"markdown","metadata":{},"source":["python-rtmidi must be installed with its dependecies to play midis. The backends are 3 https://spotlightkid.github.io/python-rtmidi/installation.html#linux\n","You also need a midi to wav convertor that can open a port timdity is all right for ubuntu.\n","\n","After installing with `sudo apt install timdity`\n","You can run a daemon once with `timdity -iA`"]},{"cell_type":"code","execution_count":39,"metadata":{},"outputs":[],"source":["from mido import MidiFile\n","import mido\n"]},{"cell_type":"code","execution_count":40,"metadata":{"tags":[]},"outputs":[{"output_type":"stream","name":"stdout","text":"<midi file 'midis/VampireKillerCV1.mid' type 1, 9 tracks, 4754 messages>\n"}],"source":["mid = MidiFile('midis/VampireKillerCV1.mid', clip=True)\n","print(mid)\n"]},{"cell_type":"code","execution_count":41,"metadata":{"tags":[]},"outputs":[{"output_type":"stream","name":"stdout","text":"<midi track '' 5 messages>\n<midi track 'CV1- Vampire Killer' 7 messages>\n<midi track 'Staff-2' 635 messages>\n<midi track 'Staff-3' 659 messages>\n<midi track 'Staff-4' 728 messages>\n<midi track 'Staff-5' 635 messages>\n<midi track 'Staff-6' 659 messages>\n<midi track 'Staff-7' 1421 messages>\n<midi track 'Staff-1' 5 messages>\n"}],"source":["for track in mid.tracks:\n","    print(track)\n"]},{"cell_type":"code","execution_count":42,"metadata":{"tags":["outputPrepend"]},"outputs":[{"output_type":"stream","name":"stdout","text":"=125\nnote_on channel=10 note=53 velocity=0 time=115\nnote_on channel=10 note=58 velocity=92 time=125\nnote_on channel=10 note=58 velocity=0 time=115\nnote_on channel=10 note=62 velocity=92 time=5\nnote_on channel=10 note=62 velocity=0 time=355\nnote_on channel=10 note=55 velocity=92 time=5\nnote_on channel=10 note=55 velocity=0 time=115\nprogram_change channel=10 program=84 time=845\nnote_on channel=10 note=69 velocity=92 time=0\nnote_on channel=10 note=69 velocity=0 time=115\nnote_on channel=10 note=69 velocity=92 time=5\nnote_on channel=10 note=69 velocity=0 time=115\nnote_on channel=10 note=67 velocity=92 time=125\nnote_on channel=10 note=67 velocity=0 time=115\nnote_on channel=10 note=67 velocity=92 time=125\nnote_on channel=10 note=67 velocity=0 time=640\nprogram_change channel=10 program=80 time=80\nnote_on channel=10 note=62 velocity=92 time=0\nnote_on channel=10 note=62 velocity=0 time=235\nnote_on channel=10 note=62 velocity=92 time=5\nnote_on channel=10 note=62 velocity=0 time=115\nnote_on channel=10 note=60 velocity=92 time=5\nnote_on channel=10 note=60 velocity=0 time=115\nnote_on channel=10 note=60 velocity=92 time=5\nnote_on channel=10 note=60 velocity=0 time=115\nnote_on channel=10 note=62 velocity=92 time=5\nnote_on channel=10 note=62 velocity=0 time=355\nnote_on channel=10 note=58 velocity=92 time=5\nnote_on channel=10 note=58 velocity=0 time=355\nnote_on channel=10 note=62 velocity=92 time=5\nnote_on channel=10 note=62 velocity=0 time=235\nnote_on channel=10 note=60 velocity=92 time=5\nnote_on channel=10 note=60 velocity=0 time=115\nnote_on channel=10 note=67 velocity=92 time=5\nnote_on channel=10 note=67 velocity=0 time=835\nprogram_change channel=10 program=84 time=5\nnote_on channel=10 note=69 velocity=92 time=0\nnote_on channel=10 note=69 velocity=0 time=115\nnote_on channel=10 note=69 velocity=92 time=5\nnote_on channel=10 note=69 velocity=0 time=115\nnote_on channel=10 note=67 velocity=92 time=125\nnote_on channel=10 note=67 velocity=0 time=115\nnote_on channel=10 note=67 velocity=92 time=125\nnote_on channel=10 note=67 velocity=0 time=640\nprogram_change channel=10 program=80 time=80\nnote_on channel=10 note=62 velocity=92 time=0\nnote_on channel=10 note=62 velocity=0 time=235\nnote_on channel=10 note=62 velocity=92 time=5\nnote_on channel=10 note=62 velocity=0 time=115\nnote_on channel=10 note=60 velocity=92 time=5\nnote_on channel=10 note=60 velocity=0 time=115\nnote_on channel=10 note=60 velocity=92 time=5\nnote_on channel=10 note=60 velocity=0 time=115\nnote_on channel=10 note=62 velocity=92 time=5\nnote_on channel=10 note=62 velocity=0 time=355\nnote_on channel=10 note=58 velocity=92 time=5\nnote_on channel=10 note=58 velocity=0 time=355\nnote_on channel=10 note=62 velocity=92 time=5\nnote_on channel=10 note=62 velocity=0 time=235\nnote_on channel=10 note=60 velocity=92 time=5\nnote_on channel=10 note=60 velocity=0 time=115\nnote_on channel=10 note=67 velocity=92 time=5\nnote_on channel=10 note=67 velocity=0 time=835\nprogram_change channel=10 program=27 time=5\nnote_on channel=10 note=69 velocity=92 time=240\nnote_on channel=10 note=69 velocity=0 time=80\nnote_on channel=10 note=74 velocity=92 time=280\nnote_on channel=10 note=74 velocity=0 time=80\nnote_on channel=10 note=73 velocity=92 time=280\nnote_on channel=10 note=73 velocity=0 time=80\nnote_on channel=10 note=74 velocity=92 time=40\nnote_on channel=10 note=74 velocity=0 time=80\nnote_on channel=10 note=73 velocity=92 time=40\nnote_on channel=10 note=73 velocity=0 time=80\nnote_on channel=10 note=72 velocity=92 time=40\nnote_on channel=10 note=72 velocity=0 time=80\nnote_on channel=10 note=81 velocity=92 time=520\nnote_on channel=10 note=81 velocity=0 time=80\nnote_on channel=10 note=81 velocity=92 time=160\nnote_on channel=10 note=81 velocity=0 time=80\nnote_on channel=10 note=80 velocity=92 time=40\nnote_on channel=10 note=80 velocity=0 time=80\nnote_on channel=10 note=80 velocity=92 time=160\nnote_on channel=10 note=80 velocity=0 time=80\nnote_on channel=10 note=79 velocity=92 time=40\nnote_on channel=10 note=79 velocity=0 time=80\nnote_on channel=10 note=81 velocity=92 time=160\nnote_on channel=10 note=81 velocity=0 time=80\nnote_on channel=10 note=81 velocity=92 time=160\nnote_on channel=10 note=81 velocity=0 time=80\nnote_on channel=10 note=80 velocity=92 time=40\nnote_on channel=10 note=80 velocity=0 time=80\nnote_on channel=10 note=80 velocity=92 time=160\nnote_on channel=10 note=80 velocity=0 time=80\nnote_on channel=10 note=79 velocity=92 time=40\nnote_on channel=10 note=79 velocity=0 time=80\nnote_on channel=10 note=69 velocity=92 time=400\nnote_on channel=10 note=69 velocity=0 time=80\nnote_on channel=10 note=74 velocity=92 time=280\nnote_on channel=10 note=74 velocity=0 time=80\nnote_on channel=10 note=73 velocity=92 time=280\nnote_on channel=10 note=73 velocity=0 time=80\nnote_on channel=10 note=74 velocity=92 time=40\nnote_on channel=10 note=74 velocity=0 time=80\nnote_on channel=10 note=73 velocity=92 time=40\nnote_on channel=10 note=73 velocity=0 time=80\nnote_on channel=10 note=72 velocity=92 time=40\nnote_on channel=10 note=72 velocity=0 time=80\nnote_on channel=10 note=81 velocity=92 time=520\nnote_on channel=10 note=81 velocity=0 time=80\nnote_on channel=10 note=81 velocity=92 time=160\nnote_on channel=10 note=81 velocity=0 time=80\nnote_on channel=10 note=80 velocity=92 time=40\nnote_on channel=10 note=80 velocity=0 time=80\nnote_on channel=10 note=80 velocity=92 time=160\nnote_on channel=10 note=80 velocity=0 time=80\nnote_on channel=10 note=79 velocity=92 time=40\nnote_on channel=10 note=79 velocity=0 time=80\nnote_on channel=10 note=81 velocity=92 time=160\nnote_on channel=10 note=81 velocity=0 time=80\nnote_on channel=10 note=81 velocity=92 time=160\nnote_on channel=10 note=81 velocity=0 time=80\nnote_on channel=10 note=80 velocity=92 time=40\nnote_on channel=10 note=80 velocity=0 time=80\nnote_on channel=10 note=80 velocity=92 time=160\nnote_on channel=10 note=80 velocity=0 time=80\nnote_on channel=10 note=79 velocity=92 time=40\nnote_on channel=10 note=79 velocity=0 time=80\nprogram_change channel=10 program=80 time=160\nnote_on channel=10 note=70 velocity=92 time=0\nnote_on channel=10 note=70 velocity=0 time=355\nnote_on channel=10 note=73 velocity=92 time=5\nnote_on channel=10 note=73 velocity=0 time=355\nnote_on channel=10 note=76 velocity=92 time=5\nnote_on channel=10 note=76 velocity=0 time=115\nnote_on channel=10 note=74 velocity=92 time=125\nnote_on channel=10 note=74 velocity=0 time=355\nnote_on channel=10 note=69 velocity=92 time=5\nnote_on channel=10 note=69 velocity=0 time=355\nnote_on channel=10 note=65 velocity=92 time=5\nnote_on channel=10 note=65 velocity=0 time=115\nnote_on channel=10 note=70 velocity=92 time=125\nnote_on channel=10 note=70 velocity=0 time=355\nnote_on channel=10 note=73 velocity=92 time=5\nnote_on channel=10 note=73 velocity=0 time=355\nnote_on channel=10 note=76 velocity=92 time=5\nnote_on channel=10 note=76 velocity=0 time=115\nnote_on channel=10 note=74 velocity=92 time=125\nnote_on channel=10 note=74 velocity=0 time=355\nnote_on channel=10 note=69 velocity=92 time=5\nnote_on channel=10 note=69 velocity=0 time=115\nnote_on channel=10 note=70 velocity=92 time=485\nnote_on channel=10 note=70 velocity=0 time=355\nnote_on channel=10 note=73 velocity=92 time=5\nnote_on channel=10 note=73 velocity=0 time=355\nnote_on channel=10 note=76 velocity=92 time=5\nnote_on channel=10 note=76 velocity=0 time=115\nnote_on channel=10 note=74 velocity=92 time=125\nnote_on channel=10 note=74 velocity=0 time=355\nnote_on channel=10 note=69 velocity=92 time=5\nnote_on channel=10 note=69 velocity=0 time=355\nnote_on channel=10 note=65 velocity=92 time=5\nnote_on channel=10 note=65 velocity=0 time=115\nnote_on channel=10 note=70 velocity=92 time=125\nnote_on channel=10 note=70 velocity=0 time=355\nnote_on channel=10 note=73 velocity=92 time=5\nnote_on channel=10 note=73 velocity=0 time=355\nnote_on channel=10 note=76 velocity=92 time=5\nnote_on channel=10 note=76 velocity=0 time=115\nnote_on channel=10 note=73 velocity=92 time=125\nnote_on channel=10 note=73 velocity=0 time=355\nnote_on channel=10 note=76 velocity=92 time=5\nnote_on channel=10 note=76 velocity=0 time=355\nnote_on channel=10 note=79 velocity=92 time=5\nnote_on channel=10 note=79 velocity=0 time=115\nnote_on channel=10 note=81 velocity=92 time=125\nnote_on channel=10 note=81 velocity=0 time=115\nnote_on channel=10 note=81 velocity=92 time=5\nnote_on channel=10 note=81 velocity=0 time=115\nnote_on channel=10 note=69 velocity=92 time=5\nnote_on channel=10 note=69 velocity=0 time=115\nnote_on channel=10 note=69 velocity=92 time=5\nnote_on channel=10 note=69 velocity=0 time=1440\nnote_on channel=10 note=53 velocity=92 time=120\nnote_on channel=10 note=53 velocity=0 time=115\nnote_on channel=10 note=53 velocity=92 time=125\nnote_on channel=10 note=53 velocity=0 time=115\nnote_on channel=10 note=58 velocity=92 time=125\nnote_on channel=10 note=58 velocity=0 time=115\nnote_on channel=10 note=62 velocity=92 time=5\nnote_on channel=10 note=62 velocity=0 time=355\nnote_on channel=10 note=55 velocity=92 time=5\nnote_on channel=10 note=55 velocity=0 time=115\nnote_on channel=10 note=55 velocity=92 time=125\nnote_on channel=10 note=55 velocity=0 time=115\nnote_on channel=10 note=60 velocity=92 time=125\nnote_on channel=10 note=60 velocity=0 time=115\nnote_on channel=10 note=64 velocity=92 time=5\nnote_on channel=10 note=64 velocity=0 time=355\nnote_on channel=10 note=81 velocity=92 time=5\nnote_on channel=10 note=81 velocity=0 time=115\nnote_on channel=10 note=81 velocity=92 time=5\nnote_on channel=10 note=81 velocity=0 time=115\nnote_on channel=10 note=69 velocity=92 time=5\nnote_on channel=10 note=69 velocity=0 time=115\nnote_on channel=10 note=69 velocity=92 time=5\nnote_on channel=10 note=69 velocity=0 time=1440\nnote_on channel=10 note=53 velocity=92 time=120\nnote_on channel=10 note=53 velocity=0 time=115\nnote_on channel=10 note=53 velocity=92 time=125\nnote_on channel=10 note=53 velocity=0 time=115\nnote_on channel=10 note=58 velocity=92 time=125\nnote_on channel=10 note=58 velocity=0 time=115\nnote_on channel=10 note=62 velocity=92 time=5\nnote_on channel=10 note=62 velocity=0 time=355\nnote_on channel=10 note=55 velocity=92 time=5\nnote_on channel=10 note=55 velocity=0 time=115\nprogram_change channel=10 program=84 time=845\nnote_on channel=10 note=69 velocity=92 time=0\nnote_on channel=10 note=69 velocity=0 time=115\nnote_on channel=10 note=69 velocity=92 time=5\nnote_on channel=10 note=69 velocity=0 time=115\nnote_on channel=10 note=67 velocity=92 time=125\nnote_on channel=10 note=67 velocity=0 time=115\nnote_on channel=10 note=67 velocity=92 time=125\nnote_on channel=10 note=67 velocity=0 time=640\nprogram_change channel=10 program=80 time=80\nnote_on channel=10 note=62 velocity=92 time=0\nnote_on channel=10 note=62 velocity=0 time=235\nnote_on channel=10 note=62 velocity=92 time=5\nnote_on channel=10 note=62 velocity=0 time=115\nnote_on channel=10 note=60 velocity=92 time=5\nnote_on channel=10 note=60 velocity=0 time=115\nnote_on channel=10 note=60 velocity=92 time=5\nnote_on channel=10 note=60 velocity=0 time=115\nnote_on channel=10 note=62 velocity=92 time=5\nnote_on channel=10 note=62 velocity=0 time=355\nnote_on channel=10 note=58 velocity=92 time=5\nnote_on channel=10 note=58 velocity=0 time=355\nnote_on channel=10 note=62 velocity=92 time=5\nnote_on channel=10 note=62 velocity=0 time=235\nnote_on channel=10 note=60 velocity=92 time=5\nnote_on channel=10 note=60 velocity=0 time=115\nnote_on channel=10 note=67 velocity=92 time=5\nnote_on channel=10 note=67 velocity=0 time=835\nprogram_change channel=10 program=84 time=5\nnote_on channel=10 note=69 velocity=92 time=0\nnote_on channel=10 note=69 velocity=0 time=115\nnote_on channel=10 note=69 velocity=92 time=5\nnote_on channel=10 note=69 velocity=0 time=115\nnote_on channel=10 note=67 velocity=92 time=125\nnote_on channel=10 note=67 velocity=0 time=115\nnote_on channel=10 note=67 velocity=92 time=125\nnote_on channel=10 note=67 velocity=0 time=640\nprogram_change channel=10 program=80 time=80\nnote_on channel=10 note=62 velocity=92 time=0\nnote_on channel=10 note=62 velocity=0 time=235\nnote_on channel=10 note=62 velocity=92 time=5\nnote_on channel=10 note=62 velocity=0 time=115\nnote_on channel=10 note=60 velocity=92 time=5\nnote_on channel=10 note=60 velocity=0 time=115\nnote_on channel=10 note=60 velocity=92 time=5\nnote_on channel=10 note=60 velocity=0 time=115\nnote_on channel=10 note=62 velocity=92 time=5\nnote_on channel=10 note=62 velocity=0 time=355\nnote_on channel=10 note=58 velocity=92 time=5\nnote_on channel=10 note=58 velocity=0 time=355\nnote_on channel=10 note=62 velocity=92 time=5\nnote_on channel=10 note=62 velocity=0 time=235\nnote_on channel=10 note=60 velocity=92 time=5\nnote_on channel=10 note=60 velocity=0 time=115\nnote_on channel=10 note=67 velocity=92 time=5\nnote_on channel=10 note=67 velocity=0 time=835\nprogram_change channel=10 program=27 time=5\nnote_on channel=10 note=69 velocity=92 time=240\nnote_on channel=10 note=69 velocity=0 time=80\nnote_on channel=10 note=74 velocity=92 time=280\nnote_on channel=10 note=74 velocity=0 time=80\nnote_on channel=10 note=73 velocity=92 time=280\nnote_on channel=10 note=73 velocity=0 time=80\nnote_on channel=10 note=74 velocity=92 time=40\nnote_on channel=10 note=74 velocity=0 time=80\nnote_on channel=10 note=73 velocity=92 time=40\nnote_on channel=10 note=73 velocity=0 time=80\nnote_on channel=10 note=72 velocity=92 time=40\nnote_on channel=10 note=72 velocity=0 time=80\nnote_on channel=10 note=81 velocity=92 time=520\nnote_on channel=10 note=81 velocity=0 time=80\nnote_on channel=10 note=81 velocity=92 time=160\nnote_on channel=10 note=81 velocity=0 time=80\nnote_on channel=10 note=80 velocity=92 time=40\nnote_on channel=10 note=80 velocity=0 time=80\nnote_on channel=10 note=80 velocity=92 time=160\nnote_on channel=10 note=80 velocity=0 time=80\nnote_on channel=10 note=79 velocity=92 time=40\nnote_on channel=10 note=79 velocity=0 time=80\nnote_on channel=10 note=81 velocity=92 time=160\nnote_on channel=10 note=81 velocity=0 time=80\nnote_on channel=10 note=81 velocity=92 time=160\nnote_on channel=10 note=81 velocity=0 time=80\nnote_on channel=10 note=80 velocity=92 time=40\nnote_on channel=10 note=80 velocity=0 time=80\nnote_on channel=10 note=80 velocity=92 time=160\nnote_on channel=10 note=80 velocity=0 time=80\nnote_on channel=10 note=79 velocity=92 time=40\nnote_on channel=10 note=79 velocity=0 time=80\nnote_on channel=10 note=69 velocity=92 time=400\nnote_on channel=10 note=69 velocity=0 time=80\nnote_on channel=10 note=74 velocity=92 time=280\nnote_on channel=10 note=74 velocity=0 time=80\nnote_on channel=10 note=73 velocity=92 time=280\nnote_on channel=10 note=73 velocity=0 time=80\nnote_on channel=10 note=74 velocity=92 time=40\nnote_on channel=10 note=74 velocity=0 time=80\nnote_on channel=10 note=73 velocity=92 time=40\nnote_on channel=10 note=73 velocity=0 time=80\nnote_on channel=10 note=72 velocity=92 time=40\nnote_on channel=10 note=72 velocity=0 time=80\nnote_on channel=10 note=81 velocity=92 time=520\nnote_on channel=10 note=81 velocity=0 time=80\nnote_on channel=10 note=81 velocity=92 time=160\nnote_on channel=10 note=81 velocity=0 time=80\nnote_on channel=10 note=80 velocity=92 time=40\nnote_on channel=10 note=80 velocity=0 time=80\nnote_on channel=10 note=80 velocity=92 time=160\nnote_on channel=10 note=80 velocity=0 time=80\nnote_on channel=10 note=79 velocity=92 time=40\nnote_on channel=10 note=79 velocity=0 time=80\nnote_on channel=10 note=81 velocity=92 time=160\nnote_on channel=10 note=81 velocity=0 time=80\nnote_on channel=10 note=81 velocity=92 time=160\nnote_on channel=10 note=81 velocity=0 time=80\nnote_on channel=10 note=80 velocity=92 time=40\nnote_on channel=10 note=80 velocity=0 time=80\nnote_on channel=10 note=80 velocity=92 time=160\nnote_on channel=10 note=80 velocity=0 time=80\nnote_on channel=10 note=79 velocity=92 time=40\nnote_on channel=10 note=79 velocity=0 time=80\nprogram_change channel=10 program=80 time=160\nnote_on channel=10 note=70 velocity=92 time=0\nnote_on channel=10 note=70 velocity=0 time=355\nnote_on channel=10 note=73 velocity=92 time=5\nnote_on channel=10 note=73 velocity=0 time=355\nnote_on channel=10 note=76 velocity=92 time=5\nnote_on channel=10 note=76 velocity=0 time=115\nnote_on channel=10 note=74 velocity=92 time=125\nnote_on channel=10 note=74 velocity=0 time=355\nnote_on channel=10 note=69 velocity=92 time=5\nnote_on channel=10 note=69 velocity=0 time=355\nnote_on channel=10 note=65 velocity=92 time=5\nnote_on channel=10 note=65 velocity=0 time=115\nnote_on channel=10 note=70 velocity=92 time=125\nnote_on channel=10 note=70 velocity=0 time=355\nnote_on channel=10 note=73 velocity=92 time=5\nnote_on channel=10 note=73 velocity=0 time=355\nnote_on channel=10 note=76 velocity=92 time=5\nnote_on channel=10 note=76 velocity=0 time=115\nnote_on channel=10 note=74 velocity=92 time=125\nnote_on channel=10 note=74 velocity=0 time=355\nnote_on channel=10 note=69 velocity=92 time=5\nnote_on channel=10 note=69 velocity=0 time=115\nnote_on channel=10 note=70 velocity=92 time=485\nnote_on channel=10 note=70 velocity=0 time=355\nnote_on channel=10 note=73 velocity=92 time=5\nnote_on channel=10 note=73 velocity=0 time=355\nnote_on channel=10 note=76 velocity=92 time=5\nnote_on channel=10 note=76 velocity=0 time=115\nnote_on channel=10 note=74 velocity=92 time=125\nnote_on channel=10 note=74 velocity=0 time=355\nnote_on channel=10 note=69 velocity=92 time=5\nnote_on channel=10 note=69 velocity=0 time=355\nnote_on channel=10 note=65 velocity=92 time=5\nnote_on channel=10 note=65 velocity=0 time=115\nnote_on channel=10 note=70 velocity=92 time=125\nnote_on channel=10 note=70 velocity=0 time=355\nnote_on channel=10 note=73 velocity=92 time=5\nnote_on channel=10 note=73 velocity=0 time=355\nnote_on channel=10 note=76 velocity=92 time=5\nnote_on channel=10 note=76 velocity=0 time=115\nnote_on channel=10 note=73 velocity=92 time=125\nnote_on channel=10 note=73 velocity=0 time=355\nnote_on channel=10 note=76 velocity=92 time=5\nnote_on channel=10 note=76 velocity=0 time=355\nnote_on channel=10 note=79 velocity=92 time=5\nnote_on channel=10 note=79 velocity=0 time=115\nnote_on channel=10 note=81 velocity=92 time=125\nnote_on channel=10 note=81 velocity=0 time=115\nnote_on channel=10 note=81 velocity=92 time=5\nnote_on channel=10 note=81 velocity=0 time=115\nnote_on channel=10 note=69 velocity=92 time=5\nnote_on channel=10 note=69 velocity=0 time=115\nnote_on channel=10 note=69 velocity=92 time=5\nnote_on channel=10 note=69 velocity=0 time=1440\nnote_on channel=10 note=53 velocity=92 time=120\nnote_on channel=10 note=53 velocity=0 time=115\nnote_on channel=10 note=53 velocity=92 time=125\nnote_on channel=10 note=53 velocity=0 time=115\nnote_on channel=10 note=58 velocity=92 time=125\nnote_on channel=10 note=58 velocity=0 time=115\nnote_on channel=10 note=62 velocity=92 time=5\nnote_on channel=10 note=62 velocity=0 time=355\nnote_on channel=10 note=55 velocity=92 time=5\nnote_on channel=10 note=55 velocity=0 time=115\nnote_on channel=10 note=55 velocity=92 time=125\nnote_on channel=10 note=55 velocity=0 time=115\nnote_on channel=10 note=60 velocity=92 time=125\nnote_on channel=10 note=60 velocity=0 time=115\nnote_on channel=10 note=64 velocity=92 time=5\nnote_on channel=10 note=64 velocity=0 time=355\nnote_on channel=10 note=81 velocity=92 time=5\nnote_on channel=10 note=81 velocity=0 time=115\nnote_on channel=10 note=81 velocity=92 time=5\nnote_on channel=10 note=81 velocity=0 time=115\nnote_on channel=10 note=69 velocity=92 time=5\nnote_on channel=10 note=69 velocity=0 time=115\nnote_on channel=10 note=69 velocity=92 time=5\nnote_on channel=10 note=69 velocity=0 time=1440\nnote_on channel=10 note=53 velocity=92 time=120\nnote_on channel=10 note=53 velocity=0 time=115\nnote_on channel=10 note=53 velocity=92 time=125\nnote_on channel=10 note=53 velocity=0 time=115\nnote_on channel=10 note=58 velocity=92 time=125\nnote_on channel=10 note=58 velocity=0 time=115\nnote_on channel=10 note=62 velocity=92 time=5\nnote_on channel=10 note=62 velocity=0 time=355\nnote_on channel=10 note=55 velocity=92 time=5\nnote_on channel=10 note=55 velocity=0 time=115\n<meta message end_of_track time=0>\n"}],"source":["for msg in mid.tracks[2]:\n","    print(msg)"]},{"cell_type":"code","execution_count":43,"metadata":{},"outputs":[],"source":["import os\n","\n","from mido import MidiFile\n","\n","\n","cv1 = MidiFile('midis/VampireKillerCV1.mid', clip=True)\n","\n","message_numbers = []\n","duplicates = []\n","\n","for track in cv1.tracks:\n","    if len(track) in message_numbers:\n","        duplicates.append(track)\n","    else:\n","        message_numbers.append(len(track))\n","\n","for track in duplicates:\n","    cv1.tracks.remove(track)\n","\n","cv1.save('midis/new_song.mid')"]},{"cell_type":"code","execution_count":52,"metadata":{},"outputs":[],"source":["midiout = rtmidi.MidiOut()\n","available_ports = midiout.get_ports()\n","\n","\n","for msg in cv1.play():\n","    port.send(msg)"]},{"cell_type":"code","execution_count":62,"metadata":{},"outputs":[{"output_type":"execute_result","data":{"text/plain":"['Midi Through:Midi Through Port-0 14:0',\n 'TiMidity:TiMidity port 0 155:0',\n 'TiMidity:TiMidity port 1 155:1',\n 'TiMidity:TiMidity port 2 155:2',\n 'TiMidity:TiMidity port 3 155:3']"},"metadata":{},"execution_count":62}],"source":["\n"]},{"cell_type":"code","execution_count":44,"metadata":{},"outputs":[],"source":["import time\n","import rtmidi\n","\n","midiout = rtmidi.MidiOut()\n","available_ports = midiout.get_ports()\n","\n","if available_ports:\n","    midiout.open_port(0)\n","else:\n","    midiout.open_virtual_port(\"My virtual output\")\n","\n","with midiout:\n","    note_on = [0x90, 60, 112] # channel 1, middle C, velocity 112\n","    note_off = [0x80, 60, 0]\n","    midiout.send_message(note_on)\n","    time.sleep(1)\n","    midiout.send_message(note_off)\n","    time.sleep(0.6)\n","\n","del midiout"]},{"cell_type":"code","execution_count":64,"metadata":{},"outputs":[],"source":["midiout = rtmidi.MidiOut()\n","available_ports = midiout.get_ports()"]},{"cell_type":"code","execution_count":65,"metadata":{"tags":[]},"outputs":[{"output_type":"execute_result","data":{"text/plain":"['Midi Through:Midi Through Port-0 14:0',\n 'TiMidity:TiMidity port 0 154:0',\n 'TiMidity:TiMidity port 1 154:1',\n 'TiMidity:TiMidity port 2 154:2',\n 'TiMidity:TiMidity port 3 154:3']"},"metadata":{},"execution_count":65}],"source":["available_ports"]},{"cell_type":"code","execution_count":67,"metadata":{"tags":[]},"outputs":[{"output_type":"stream","name":"stdout","text":"60\n61\n62\n63\n64\n65\n66\n67\n68\n69\n70\n71\n72\n73\n74\n75\n76\n77\n78\n79\n"}],"source":["import time\n","import mido\n","from mido import Message\n","\n","# mido.set_backend('mido.backends.pygame')\n","\n","# print(mido.get_output_names())\n"," \n","port = mido.open_output('TiMidity:TiMidity port 0 154:0')\n"," \n","for note in range(60, 80):\n","    print(note)\n","    port.send(Message('note_on', note=note))\n","    time.sleep(0.1)\n","    port.send(Message('note_off', note=note))\n","    time.sleep(0.1)"]},{"cell_type":"code","execution_count":48,"metadata":{},"outputs":[],"source":["import time\n","import rtmidi\n","\n","from rtmidi.midiconstants import NOTE_OFF, NOTE_ON\n","\n","NOTE = 60  # middle C\n","\n","midiout = rtmidi.MidiOut(\n","\n","with (midiout.open_port(0) if midiout.get_ports() else\n","        midiout.open_virtual_port(\"My virtual output\")):\n","    note_on = [NOTE_ON, NOTE, 112]\n","    note_off = [NOTE_OFF, NOTE, 0]\n","    midiout.send_message(note_on)\n","    time.sleep(0.5)\n","    midiout.send_message(note_off)\n","    time.sleep(0.1)\n","\n","del midiout"]},{"cell_type":"code","execution_count":61,"metadata":{},"outputs":[{"output_type":"execute_result","data":{"text/plain":"<open output 'Midi Through:Midi Through Port-0 14:0' (RtMidi/LINUX_ALSA)>"},"metadata":{},"execution_count":61}],"source":["mido.open_output()"]},{"cell_type":"code","execution_count":null,"metadata":{},"outputs":[],"source":[]}],"nbformat":4,"nbformat_minor":2,"metadata":{"language_info":{"codemirror_mode":{"name":"ipython","version":3},"file_extension":".py","mimetype":"text/x-python","name":"python","nbconvert_exporter":"python","pygments_lexer":"ipython3","version":"3.8.2-final"},"orig_nbformat":2,"kernelspec":{"name":"python3","display_name":"Python 3"}}}